<?xml version="1.0" encoding="UTF-8"?>
<svg width="500px" height="500px" viewBox="0 0 500 500" version="1.1" xmlns="http://www.w3.org/2000/svg" xmlns:xlink="http://www.w3.org/1999/xlink">
    <!-- Generator: Sketch 63.1 (92452) - https://sketch.com -->
    <title>Logo</title>
    <desc>Created with Sketch.</desc>
    <g id="Logo" stroke="none" stroke-width="1" fill="none" fill-rule="evenodd">
        <path d="M338,40.2842708 C311.141243,29.1469596 281.690179,23 250.803415,23 C219.916652,23 190.465588,29.1469596 163.606831,40.2842708 C135.763136,51.8299985 110.70536,68.7387912 89.7220756,89.7220756 C68.7387912,110.70536 51.8299985,135.763136 40.2842708,163.606831 C29.1469596,190.465588 23,219.916652 23,250.803415 M163,460.715729 C189.858757,471.85304 219.309821,478 250.196585,478 C281.083348,478 310.534412,471.85304 337.393169,460.715729 C365.236864,449.170001 390.29464,432.261209 411.277924,411.277924 C432.261209,390.29464 449.170001,365.236864 460.715729,337.393169 C471.85304,310.534412 478,281.083348 478,250.196585" id="circle" stroke="#67bbff" stroke-width="40" stroke-linecap="round" transform="translate(250.500000, 250.500000) rotate(-10.000000) translate(-250.500000, -250.500000) "></path>
        <g id="rocket" transform="translate(58.000000, 32.000000)" fill="#373736" fill-rule="nonzero">
            <path d="M402.730883,0.099087123 C401.869975,-0.033029041 400.995148,-0.033029041 400.134241,0.099087123 C320.625606,15.9712868 247.472051,54.7973273 189.661704,111.807063 L114.10746,115.673878 C111.97982,115.770548 109.963541,116.658841 108.453741,118.165825 L30.8435992,196.017691 C27.484562,199.359264 27.4620757,204.800731 30.7932725,208.17023 C32.4144336,209.80933 34.623453,210.72555 36.9256302,210.711587 L37.5252671,210.711587 L124.986586,204.696542 C121.560089,211.914596 118.304918,219.304508 115.306734,227.038137 C114.063558,230.206777 114.802396,233.812581 117.191307,236.232563 L174.756445,293.976993 C177.168913,296.373344 180.763521,297.114484 183.922323,295.867436 C191.888927,292.773984 199.427219,289.336816 206.879848,285.813718 L200.883479,374.492665 C200.611501,379.230587 204.22003,383.292891 208.943241,383.565716 C211.358921,383.705351 213.722133,382.812761 215.446089,381.109215 L293.056231,303.257348 C294.558535,301.742846 295.44407,299.720287 295.54044,297.58602 L299.480911,220.249729 C355.833926,162.348478 394.196765,89.2667567 409.899755,9.89501733 C410.617178,5.20435645 407.406979,0.818744277 402.730883,0.099087123 Z M59.1978563,191.635301 L118.304918,132.344145 L173.214522,129.508481 C158.249299,147.099265 145.130101,166.190588 134.066801,186.479549 L59.1978563,191.635301 Z M278.664946,293.203631 L219.557884,352.494787 L224.697629,276.361505 C244.93109,265.210041 263.964206,251.993054 281.491806,236.919996 L278.664946,293.203631 Z M182.894374,277.564514 L133.295839,227.8115 C195.743735,74.7715727 346.509573,29.6587362 390.283064,19.6050183 C380.431887,63.6867043 335.71611,214.836189 182.894374,277.564514 Z" id="Shape"></path>
            <path d="M95.1303709,239.368384 C91.7787099,235.980311 86.3063029,235.9417 82.907299,239.282583 L3.02694176,318.562865 C-0.592636928,321.63562 -1.02733068,327.050746 2.05426069,330.658685 C3.79088375,332.691101 6.37752679,333.802226 9.05239974,333.663871 C11.3399218,333.676742 13.539214,332.781192 15.1639357,331.175637 L95.044293,251.552151 C98.4432968,248.21234 98.4820319,242.756458 95.1303709,239.368384 Z" id="Path"></path>
            <path d="M97.2899203,313.731911 C97.2716417,313.712543 97.2533632,313.692099 97.2340094,313.672731 C93.8793548,310.335024 88.4602974,310.335024 85.1056428,313.672731 L5.19604994,393.984294 C1.10810225,396.406338 -0.242361267,401.686199 2.17793601,405.777096 C4.59823328,409.867993 9.8742878,411.219431 13.9622355,408.797387 C15.2062532,408.060337 16.2438307,407.022011 16.9803494,405.777096 L96.8039255,325.895928 C100.295132,322.670123 100.512324,317.22456 97.2899203,313.731911 Z" id="Path"></path>
            <path d="M204.670873,207.073199 C204.652594,207.053832 204.634316,207.033388 204.614962,207.01402 C201.260307,203.676313 195.84125,203.676313 192.486595,207.01402 L112.577002,287.325583 C108.489055,289.747626 107.138591,295.027488 109.558888,299.118385 C111.979186,303.209282 117.25524,304.56072 121.343188,302.138676 C122.587206,301.401626 123.624783,300.3633 124.361302,299.118385 L204.184878,219.237216 C207.676084,216.011412 207.893276,210.565849 204.670873,207.073199 Z" id="Path-Copy"></path>
            <path d="M168.83746,315.191644 C165.653877,312.438107 160.958758,312.438107 157.775175,315.191644 L158.030287,315.191644 L79.1157102,394.888554 C75.5483971,397.973804 75.1327775,403.394997 78.1877411,406.997675 C81.2427046,410.600353 86.6106816,411.020093 90.1779947,407.934844 C90.510703,407.647145 90.821089,407.333682 91.1059638,406.997675 L169.765429,327.300765 C172.81933,323.699161 172.40371,318.276894 168.83746,315.191644 Z" id="Path"></path>
            <path d="M296.754401,74.3675426 C275.728298,74.3718409 258.68619,91.4609947 258.690477,112.537188 C258.692621,122.657886 262.704484,132.362798 269.84502,139.518196 C276.97055,146.698305 286.665259,150.721874 296.769407,150.691958 C317.795509,150.687493 334.837617,133.59834 334.833331,112.522147 C334.829043,91.4459533 317.780504,74.3632459 296.754401,74.3675426 Z M311.603544,127.742946 C303.278635,135.877108 290.00294,135.877108 281.678031,127.742946 C273.511753,119.553991 273.511753,106.2789 281.678031,98.0899447 L281.678031,97.7461418 C289.941845,89.4626402 303.339729,89.4626402 311.603544,97.7461418 C319.867358,106.029643 319.867358,119.459445 311.603544,127.742946 Z" id="Shape"></path>
        </g>
    </g>
</svg>